<svg width="235" height="154" viewBox="0 0 235 154" fill="none" xmlns="http://www.w3.org/2000/svg">
<path d="M0 70.8977H178.5M0 118.398H234.5" stroke="#E8B50D" stroke-width="5"/>
<g filter="url(#filter0_d_30_3)">
<path d="M81.888 63.8978V46.2978H85.888V63.8978H81.888ZM81.888 45.0178V40.8578H85.888V45.0178H81.888ZM95.3973 64.3138C94.2559 64.3138 93.2639 64.0685 92.4213 63.5778C91.5893 63.0765 90.9439 62.3832 90.4853 61.4978C90.0266 60.6125 89.7973 59.5778 89.7973 58.3938V51.8018C89.7973 50.6178 90.0266 49.5832 90.4853 48.6978C90.9439 47.8018 91.5893 47.1085 92.4213 46.6178C93.2639 46.1272 94.2559 45.8818 95.3973 45.8818C97.1146 45.8818 98.4746 46.4258 99.4773 47.5138C100.491 48.5912 100.997 50.0205 100.997 51.8018V52.1218H96.9973V51.4818C96.9973 51.0018 96.8586 50.6178 96.5813 50.3298C96.3039 50.0312 95.9093 49.8818 95.3973 49.8818C94.8853 49.8818 94.4906 50.0312 94.2133 50.3298C93.9359 50.6178 93.7973 51.0018 93.7973 51.4818V58.7138C93.7973 59.1938 93.9359 59.5832 94.2133 59.8818C94.4906 60.1698 94.8853 60.3138 95.3973 60.3138C95.9093 60.3138 96.3039 60.1698 96.5813 59.8818C96.8586 59.5832 96.9973 59.1938 96.9973 58.7138V58.0738H100.997V58.3938C100.997 60.1645 100.491 61.5938 99.4773 62.6818C98.4746 63.7698 97.1146 64.3138 95.3973 64.3138ZM104.387 63.8978V39.8978H108.387V48.9858L107.683 48.0578C108.024 47.3645 108.499 46.8312 109.107 46.4578C109.715 46.0738 110.467 45.8818 111.363 45.8818C112.056 45.8818 112.723 46.0205 113.363 46.2978C114.013 46.5752 114.547 47.0552 114.963 47.7378C115.379 48.4098 115.587 49.3378 115.587 50.5218V63.8978H111.587V51.4818C111.587 51.0018 111.448 50.6178 111.171 50.3298C110.893 50.0312 110.499 49.8818 109.987 49.8818C109.475 49.8818 109.08 50.0312 108.803 50.3298C108.525 50.6178 108.387 51.0018 108.387 51.4818V63.8978H104.387ZM123.326 64.3138C121.886 64.3138 120.788 63.8658 120.03 62.9698C119.284 62.0632 118.91 60.9165 118.91 59.5298C118.91 58.7298 119.028 58.0525 119.262 57.4978C119.497 56.9432 119.806 56.4792 120.19 56.1058C120.585 55.7218 121.022 55.3965 121.502 55.1298C122.046 54.8205 122.606 54.5645 123.182 54.3618C123.758 54.1485 124.292 53.9405 124.782 53.7378C125.273 53.5245 125.668 53.2685 125.966 52.9698C126.276 52.6712 126.43 52.2818 126.43 51.8018V51.4818C126.43 51.0018 126.292 50.6178 126.014 50.3298C125.737 50.0312 125.342 49.8818 124.83 49.8818C124.318 49.8818 123.924 50.0312 123.646 50.3298C123.369 50.6178 123.23 51.0018 123.23 51.4818V52.4418H119.23V51.8018C119.23 50.0205 119.737 48.5912 120.75 47.5138C121.764 46.4258 123.124 45.8818 124.83 45.8818C125.972 45.8818 126.958 46.1272 127.79 46.6178C128.633 47.1085 129.284 47.8018 129.742 48.6978C130.201 49.5832 130.43 50.6178 130.43 51.8018V63.8978H126.43V61.1458L127.134 62.0418C126.804 62.7778 126.308 63.3432 125.646 63.7378C124.996 64.1218 124.222 64.3138 123.326 64.3138ZM124.638 60.6338C125.086 60.6338 125.497 60.5005 125.87 60.2338C126.244 59.9672 126.43 59.4925 126.43 58.8098V56.3458C126.153 56.5912 125.812 56.7832 125.406 56.9218C125.001 57.0498 124.585 57.2205 124.158 57.4338C123.732 57.6365 123.417 57.8658 123.214 58.1218C123.012 58.3672 122.91 58.6712 122.91 59.0338C122.91 59.4498 123.054 59.8232 123.342 60.1538C123.63 60.4738 124.062 60.6338 124.638 60.6338ZM139.692 64.3138C138.551 64.3138 137.559 64.0685 136.716 63.5778C135.884 63.0765 135.239 62.3832 134.78 61.4978C134.322 60.6125 134.092 59.5778 134.092 58.3938V51.8018C134.092 50.6178 134.322 49.5832 134.78 48.6978C135.239 47.8018 135.884 47.1085 136.716 46.6178C137.559 46.1272 138.551 45.8818 139.692 45.8818C141.41 45.8818 142.77 46.4258 143.772 47.5138C144.786 48.5912 145.292 50.0205 145.292 51.8018V56.1218H137.58V52.4418H141.292V51.4818C141.292 51.0018 141.154 50.6178 140.876 50.3298C140.599 50.0312 140.204 49.8818 139.692 49.8818C139.18 49.8818 138.786 50.0312 138.508 50.3298C138.231 50.6178 138.092 51.0018 138.092 51.4818V58.7138C138.092 59.1938 138.231 59.5832 138.508 59.8818C138.786 60.1698 139.18 60.3138 139.692 60.3138C140.204 60.3138 140.599 60.1698 140.876 59.8818C141.154 59.5832 141.292 59.1938 141.292 58.7138V58.0738H145.292V58.3938C145.292 60.1645 144.786 61.5938 143.772 62.6818C142.77 63.7698 141.41 64.3138 139.692 64.3138ZM149.119 63.8978V39.8978H153.119V63.8978H149.119Z" fill="#E7B40D"/>
</g>
<g filter="url(#filter1_d_30_3)">
<path d="M163.222 111.898L156.69 77.3978H163.038L166.994 103.112H166.166L169.984 77.3978H176.332L169.938 111.898H163.222ZM179.831 111.898V94.2978H183.831V111.898H179.831ZM179.831 93.0178V88.8578H183.831V93.0178H179.831ZM192.157 112.314C191.463 112.314 190.791 112.159 190.141 111.85C189.501 111.54 188.973 110.986 188.557 110.186C188.141 109.375 187.933 108.218 187.933 106.714V99.4818C187.933 97.9778 188.141 96.8205 188.557 96.0098C188.973 95.1992 189.501 94.6445 190.141 94.3458C190.791 94.0365 191.463 93.8818 192.157 93.8818C193.053 93.8818 193.805 94.0738 194.413 94.4578C195.031 94.8312 195.506 95.3645 195.837 96.0578L195.133 96.9858V87.8978H199.133V111.898H195.133V109.21L195.837 110.138C195.506 110.82 195.031 111.354 194.413 111.738C193.805 112.122 193.053 112.314 192.157 112.314ZM193.533 108.314C194.045 108.314 194.439 108.17 194.717 107.882C194.994 107.583 195.133 107.194 195.133 106.714V99.4818C195.133 99.0018 194.994 98.6178 194.717 98.3298C194.439 98.0312 194.045 97.8818 193.533 97.8818C193.021 97.8818 192.626 98.0312 192.349 98.3298C192.071 98.6178 191.933 99.0018 191.933 99.4818V106.714C191.933 107.194 192.071 107.583 192.349 107.882C192.626 108.17 193.021 108.314 193.533 108.314ZM207.005 112.314C205.565 112.314 204.466 111.866 203.709 110.97C202.962 110.063 202.589 108.916 202.589 107.53C202.589 106.73 202.706 106.052 202.941 105.498C203.176 104.943 203.485 104.479 203.869 104.106C204.264 103.722 204.701 103.396 205.181 103.13C205.725 102.82 206.285 102.564 206.861 102.362C207.437 102.148 207.97 101.94 208.461 101.738C208.952 101.524 209.346 101.268 209.645 100.97C209.954 100.671 210.109 100.282 210.109 99.8018V99.4818C210.109 99.0018 209.97 98.6178 209.693 98.3298C209.416 98.0312 209.021 97.8818 208.509 97.8818C207.997 97.8818 207.602 98.0312 207.325 98.3298C207.048 98.6178 206.909 99.0018 206.909 99.4818V100.442H202.909V99.8018C202.909 98.0205 203.416 96.5912 204.429 95.5138C205.442 94.4258 206.802 93.8818 208.509 93.8818C209.65 93.8818 210.637 94.1272 211.469 94.6178C212.312 95.1085 212.962 95.8018 213.421 96.6978C213.88 97.5832 214.109 98.6178 214.109 99.8018V111.898H210.109V109.146L210.813 110.042C210.482 110.778 209.986 111.343 209.325 111.738C208.674 112.122 207.901 112.314 207.005 112.314ZM208.317 108.634C208.765 108.634 209.176 108.5 209.549 108.234C209.922 107.967 210.109 107.492 210.109 106.81V104.346C209.832 104.591 209.49 104.783 209.085 104.922C208.68 105.05 208.264 105.22 207.837 105.434C207.41 105.636 207.096 105.866 206.893 106.122C206.69 106.367 206.589 106.671 206.589 107.034C206.589 107.45 206.733 107.823 207.021 108.154C207.309 108.474 207.741 108.634 208.317 108.634ZM218.283 111.898V87.8978H222.283V111.898H218.283Z" fill="#E7B40D"/>
</g>
<g filter="url(#filter2_d_30_3)">
<path d="M98.976 112.314C97.8347 112.314 96.8427 112.068 96 111.578C95.168 111.076 94.5227 110.383 94.064 109.498C93.6053 108.612 93.376 107.578 93.376 106.394V99.8018C93.376 98.6178 93.6053 97.5832 94.064 96.6978C94.5227 95.8018 95.168 95.1085 96 94.6178C96.8427 94.1272 97.8347 93.8818 98.976 93.8818C100.693 93.8818 102.053 94.4258 103.056 95.5138C104.069 96.5912 104.576 98.0205 104.576 99.8018V104.122H96.864V100.442H100.576V99.4818C100.576 99.0018 100.437 98.6178 100.16 98.3298C99.8827 98.0312 99.488 97.8818 98.976 97.8818C98.464 97.8818 98.0693 98.0312 97.792 98.3298C97.5147 98.6178 97.376 99.0018 97.376 99.4818V106.714C97.376 107.194 97.5147 107.583 97.792 107.882C98.0693 108.17 98.464 108.314 98.976 108.314C99.488 108.314 99.8827 108.17 100.16 107.882C100.437 107.583 100.576 107.194 100.576 106.714V106.074H104.576V106.394C104.576 108.164 104.069 109.594 103.056 110.682C102.053 111.77 100.693 112.314 98.976 112.314ZM109.779 117.658L111.315 111.898L106.483 94.2978H110.835L113.811 106.938H112.947L115.795 94.2978H120.147L113.811 117.658H109.779ZM129.197 112.122C127.49 112.122 126.13 111.631 125.117 110.65C124.103 109.668 123.597 108.292 123.597 106.522V97.9778H120.717V94.2978H123.597V90.1378H127.597V94.2978H130.957V97.9778H127.597V106.522C127.597 107.002 127.735 107.391 128.013 107.69C128.29 107.978 128.685 108.122 129.197 108.122H130.957V112.122H129.197ZM139.302 112.314C138.161 112.314 137.169 112.068 136.326 111.578C135.494 111.076 134.849 110.383 134.39 109.498C133.932 108.612 133.702 107.578 133.702 106.394V99.8018C133.702 98.6178 133.932 97.5832 134.39 96.6978C134.849 95.8018 135.494 95.1085 136.326 94.6178C137.169 94.1272 138.161 93.8818 139.302 93.8818C141.02 93.8818 142.38 94.4258 143.382 95.5138C144.396 96.5912 144.902 98.0205 144.902 99.8018V104.122H137.19V100.442H140.902V99.4818C140.902 99.0018 140.764 98.6178 140.486 98.3298C140.209 98.0312 139.814 97.8818 139.302 97.8818C138.79 97.8818 138.396 98.0312 138.118 98.3298C137.841 98.6178 137.702 99.0018 137.702 99.4818V106.714C137.702 107.194 137.841 107.583 138.118 107.882C138.396 108.17 138.79 108.314 139.302 108.314C139.814 108.314 140.209 108.17 140.486 107.882C140.764 107.583 140.902 107.194 140.902 106.714V106.074H144.902V106.394C144.902 108.164 144.396 109.594 143.382 110.682C142.38 111.77 141.02 112.314 139.302 112.314ZM148.729 105.242V100.922H158.329V105.242H148.729Z" fill="#E7B40D"/>
</g>
<g filter="url(#filter3_d_30_3)">
<path d="M85.0001 118.398L78.0001 118.398C72.7533 118.398 68.5001 122.651 68.5001 127.898L68.5001 129.148C68.5001 133.704 72.1937 137.398 76.7501 137.398V137.398C81.3064 137.398 85.0001 133.704 85.0001 129.148L85.0001 118.398ZM85.0001 118.398L85.0001 76.8978M39.6726 61.8979C37.1795 61.8979 34.2295 61.8979 31.4713 61.8979C26.3627 61.8979 22.2224 66.0392 22.2224 71.1479L22.2224 71.6728C22.2224 76.4915 26.1288 80.3979 30.9475 80.3979V80.3979C35.7663 80.3979 39.6726 76.4915 39.6726 71.6728L39.6726 61.8979ZM39.6726 61.8979L39.6726 9.66031C39.6726 8.603 41.0996 8.26904 41.5688 9.21655L57.0472 40.4738C57.4244 41.2354 58.5194 41.2092 58.8597 40.4305L72.2561 9.77295C72.69 8.78007 74.1725 9.08983 74.1725 10.1734L74.1725 63.8978" stroke="#E7B40D" stroke-width="5" shape-rendering="crispEdges"/>
</g>
<defs>
<filter id="filter0_d_30_3" x="77.888" y="39.8978" width="79.2313" height="32.416" filterUnits="userSpaceOnUse" color-interpolation-filters="sRGB">
<feFlood flood-opacity="0" result="BackgroundImageFix"/>
<feColorMatrix in="SourceAlpha" type="matrix" values="0 0 0 0 0 0 0 0 0 0 0 0 0 0 0 0 0 0 127 0" result="hardAlpha"/>
<feOffset dy="4"/>
<feGaussianBlur stdDeviation="2"/>
<feComposite in2="hardAlpha" operator="out"/>
<feColorMatrix type="matrix" values="0 0 0 0 0 0 0 0 0 0 0 0 0 0 0 0 0 0 0.25 0"/>
<feBlend mode="normal" in2="BackgroundImageFix" result="effect1_dropShadow_30_3"/>
<feBlend mode="normal" in="SourceGraphic" in2="effect1_dropShadow_30_3" result="shape"/>
</filter>
<filter id="filter1_d_30_3" x="152.69" y="77.3978" width="73.5927" height="42.916" filterUnits="userSpaceOnUse" color-interpolation-filters="sRGB">
<feFlood flood-opacity="0" result="BackgroundImageFix"/>
<feColorMatrix in="SourceAlpha" type="matrix" values="0 0 0 0 0 0 0 0 0 0 0 0 0 0 0 0 0 0 127 0" result="hardAlpha"/>
<feOffset dy="4"/>
<feGaussianBlur stdDeviation="2"/>
<feComposite in2="hardAlpha" operator="out"/>
<feColorMatrix type="matrix" values="0 0 0 0 0 0 0 0 0 0 0 0 0 0 0 0 0 0 0.25 0"/>
<feBlend mode="normal" in2="BackgroundImageFix" result="effect1_dropShadow_30_3"/>
<feBlend mode="normal" in="SourceGraphic" in2="effect1_dropShadow_30_3" result="shape"/>
</filter>
<filter id="filter2_d_30_3" x="89.376" y="90.1378" width="72.9533" height="35.52" filterUnits="userSpaceOnUse" color-interpolation-filters="sRGB">
<feFlood flood-opacity="0" result="BackgroundImageFix"/>
<feColorMatrix in="SourceAlpha" type="matrix" values="0 0 0 0 0 0 0 0 0 0 0 0 0 0 0 0 0 0 127 0" result="hardAlpha"/>
<feOffset dy="4"/>
<feGaussianBlur stdDeviation="2"/>
<feComposite in2="hardAlpha" operator="out"/>
<feColorMatrix type="matrix" values="0 0 0 0 0 0 0 0 0 0 0 0 0 0 0 0 0 0 0.25 0"/>
<feBlend mode="normal" in2="BackgroundImageFix" result="effect1_dropShadow_30_3"/>
<feBlend mode="normal" in="SourceGraphic" in2="effect1_dropShadow_30_3" result="shape"/>
</filter>
<filter id="filter3_d_30_3" x="9.72241" y="0.155151" width="87.7776" height="153.743" filterUnits="userSpaceOnUse" color-interpolation-filters="sRGB">
<feFlood flood-opacity="0" result="BackgroundImageFix"/>
<feColorMatrix in="SourceAlpha" type="matrix" values="0 0 0 0 0 0 0 0 0 0 0 0 0 0 0 0 0 0 127 0" result="hardAlpha"/>
<feOffset dy="4"/>
<feGaussianBlur stdDeviation="5"/>
<feComposite in2="hardAlpha" operator="out"/>
<feColorMatrix type="matrix" values="0 0 0 0 0 0 0 0 0 0 0 0 0 0 0 0 0 0 0.15 0"/>
<feBlend mode="normal" in2="BackgroundImageFix" result="effect1_dropShadow_30_3"/>
<feBlend mode="normal" in="SourceGraphic" in2="effect1_dropShadow_30_3" result="shape"/>
</filter>
</defs>
</svg>
